# Blender v3.1.2 OBJ File: 'untitled.blend'
# www.blender.org
mtllib cricle.mtl
o Circle_Circle.002
v 1.019649 0.267025 -42.023048
v -6.783964 0.267025 -41.254459
v -14.287690 0.267025 -38.978230
v -21.203159 0.267025 -35.281834
v -27.264622 0.267025 -30.307320
v -32.239136 0.267025 -24.245857
v -35.935532 0.267025 -17.330385
v -38.211761 0.267025 -9.826663
v -38.980350 0.267025 -2.023047
v -38.211761 0.267025 5.780564
v -35.935532 0.267025 13.284287
v -32.239136 0.267025 20.199759
v -27.264622 0.267025 26.261223
v -21.203159 0.267025 31.235737
v -14.287691 0.267025 34.932133
v -6.783963 0.267025 37.208363
v 1.019652 0.267025 37.976952
v 8.823258 0.267025 37.208363
v 16.326984 0.267025 34.932133
v 23.242462 0.267025 31.235733
v 29.303917 0.267025 26.261225
v 34.278427 0.267025 20.199768
v 37.974831 0.267025 13.284294
v 40.251060 0.267025 5.780567
v 41.019650 0.267025 -2.023049
v 40.251060 0.267025 -9.826665
v 37.974827 0.267025 -17.330393
v 34.278439 0.267025 -24.245852
v 29.303925 0.267025 -30.307316
v 23.242462 0.267025 -35.281834
v 16.326984 0.267025 -38.978230
v 8.823257 0.267025 -41.254459
v 1.019650 0.267025 -7.157031
v 0.018060 0.267025 -7.058383
v -0.945041 0.267025 -6.766231
v -1.832639 0.267025 -6.291800
v -2.610625 0.267025 -5.653323
v -3.249103 0.267025 -4.875337
v -3.723535 0.267025 -3.987739
v -4.015687 0.267025 -3.024639
v -4.114335 0.267025 -2.023048
v -4.015687 0.267025 -1.021458
v -3.723535 0.267025 -0.058358
v -3.249103 0.267025 0.829240
v -2.610625 0.267025 1.607226
v -1.832639 0.267025 2.245704
v -0.945041 0.267025 2.720136
v 0.018060 0.267025 3.012288
v 1.019651 0.267025 3.110936
v 2.021240 0.267025 3.012288
v 2.984341 0.267025 2.720136
v 3.871940 0.267025 2.245704
v 4.649924 0.267025 1.607226
v 5.288402 0.267025 0.829242
v 5.762832 0.267025 -0.058357
v 6.054984 0.267025 -1.021458
v 6.153636 0.267025 -2.023048
v 6.054984 0.267025 -3.024640
v 5.762832 0.267025 -3.987741
v 5.288404 0.267025 -4.875337
v 4.649926 0.267025 -5.653323
v 3.871940 0.267025 -6.291800
v 2.984341 0.267025 -6.766231
v 2.021240 0.267025 -7.058383
v -6.783964 5.017565 -41.254459
v 1.019649 5.017565 -42.023048
v -14.287690 5.017565 -38.978230
v -21.203159 5.017565 -35.281834
v -27.264622 5.017565 -30.307320
v -32.239136 5.017565 -24.245857
v -35.935532 5.017565 -17.330385
v -38.211761 5.017565 -9.826663
v -38.980350 5.017565 -2.023047
v -38.211761 5.017565 5.780564
v -35.935532 5.017565 13.284287
v -32.239136 5.017565 20.199759
v -27.264622 5.017565 26.261223
v -21.203159 5.017565 31.235737
v -14.287691 5.017565 34.932133
v -6.783963 5.017565 37.208363
v 1.019652 5.017565 37.976952
v 8.823258 5.017565 37.208363
v 16.326984 5.017565 34.932133
v 23.242462 5.017565 31.235733
v 29.303917 5.017565 26.261225
v 34.278427 5.017565 20.199768
v 37.974831 5.017565 13.284294
v 40.251060 5.017565 5.780567
v 41.019650 5.017565 -2.023049
v 40.251060 5.017565 -9.826665
v 37.974827 5.017565 -17.330393
v 34.278439 5.017565 -24.245852
v 29.303925 5.017565 -30.307316
v 23.242462 5.017565 -35.281834
v 16.326984 5.017565 -38.978230
v 8.823257 5.017565 -41.254459
v 0.018060 5.017565 -7.058383
v 1.019650 5.017565 -7.157031
v -0.945041 5.017565 -6.766231
v -1.832639 5.017565 -6.291800
v -2.610625 5.017565 -5.653323
v -3.249103 5.017565 -4.875337
v -3.723535 5.017565 -3.987739
v -4.015687 5.017565 -3.024639
v -4.114335 5.017565 -2.023048
v -4.015687 5.017565 -1.021458
v -3.723535 5.017565 -0.058358
v -3.249103 5.017565 0.829240
v -2.610625 5.017565 1.607226
v -1.832639 5.017565 2.245704
v -0.945041 5.017565 2.720136
v 0.018060 5.017565 3.012288
v 1.019651 5.017565 3.110936
v 2.021240 5.017565 3.012288
v 2.984341 5.017565 2.720136
v 3.871940 5.017565 2.245704
v 4.649924 5.017565 1.607226
v 5.288402 5.017565 0.829242
v 5.762832 5.017565 -0.058357
v 6.054984 5.017565 -1.021458
v 6.153636 5.017565 -2.023048
v 6.054984 5.017565 -3.024640
v 5.762832 5.017565 -3.987741
v 5.288404 5.017565 -4.875337
v 4.649926 5.017565 -5.653323
v 3.871940 5.017565 -6.291800
v 2.984341 5.017565 -6.766231
v 2.021240 5.017565 -7.058383
vt 0.000000 0.000000
vt 0.000000 0.000000
vt 0.000000 0.000000
vt 0.000000 0.000000
vt 0.000000 0.000000
vt 0.000000 0.000000
vt 0.000000 0.000000
vt 0.000000 0.000000
vt 0.000000 0.000000
vt 0.000000 0.000000
vt 0.000000 0.000000
vt 0.000000 0.000000
vt 0.000000 0.000000
vt 0.000000 0.000000
vt 0.000000 0.000000
vt 0.000000 0.000000
vt 0.000000 0.000000
vt 0.000000 0.000000
vt 0.000000 0.000000
vt 0.000000 0.000000
vt 0.000000 0.000000
vt 0.000000 0.000000
vt 0.000000 0.000000
vt 0.000000 0.000000
vt 0.000000 0.000000
vt 0.000000 0.000000
vt 0.000000 0.000000
vt 0.000000 0.000000
vt 0.000000 0.000000
vt 0.000000 0.000000
vt 0.000000 0.000000
vt 0.000000 0.000000
vt 0.000000 0.000000
vt 0.000000 0.000000
vt 0.000000 0.000000
vt 0.000000 0.000000
vt 0.000000 0.000000
vt 0.000000 0.000000
vt 0.000000 0.000000
vt 0.000000 0.000000
vt 0.000000 0.000000
vt 0.000000 0.000000
vt 0.000000 0.000000
vt 0.000000 0.000000
vt 0.000000 0.000000
vt 0.000000 0.000000
vt 0.000000 0.000000
vt 0.000000 0.000000
vt 0.000000 0.000000
vt 0.000000 0.000000
vt 0.000000 0.000000
vt 0.000000 0.000000
vt 0.000000 0.000000
vt 0.000000 0.000000
vt 0.000000 0.000000
vt 0.000000 0.000000
vt 0.000000 0.000000
vt 0.000000 0.000000
vt 0.000000 0.000000
vt 0.000000 0.000000
vt 0.000000 0.000000
vt 0.000000 0.000000
vt 0.000000 0.000000
vt 0.000000 0.000000
vt 0.382325 0.933550
vt 0.294102 0.909036
vt 0.474693 0.553550
vt 0.485559 0.557491
vt 0.783055 0.157888
vt 0.844934 0.219999
vt 0.546459 0.463538
vt 0.539249 0.454432
vt 0.468736 0.944774
vt 0.496958 0.559300
vt 0.708851 0.108084
vt 0.531145 0.446560
vt 0.554084 0.941763
vt 0.508405 0.558915
vt 0.627535 0.073938
vt 0.520224 0.444105
vt 0.637457 0.925322
vt 0.519514 0.556384
vt 0.541829 0.056864
vt 0.508588 0.443068
vt 0.720504 0.896949
vt 0.529912 0.551793
vt 0.454699 0.057335
vt 0.496633 0.443649
vt 0.793926 0.846054
vt 0.539149 0.545329
vt 0.369482 0.074881
vt 0.485323 0.446279
vt 0.850569 0.776011
vt 0.546936 0.537226
vt 0.289121 0.108797
vt 0.474459 0.450469
vt 0.894626 0.701931
vt 0.552996 0.527745
vt 0.217088 0.157462
vt 0.465052 0.457411
vt 0.924997 0.622611
vt 0.557083 0.517319
vt 0.070458 0.631850
vt 0.056490 0.543424
vt 0.442359 0.509303
vt 0.442542 0.520356
vt 0.155952 0.218914
vt 0.457137 0.465854
vt 0.940516 0.539419
vt 0.559089 0.506336
vt 0.097510 0.719935
vt 0.448480 0.530508
vt 0.107866 0.290794
vt 0.450920 0.475557
vt 0.940419 0.454706
vt 0.558969 0.495190
vt 0.150075 0.796601
vt 0.455944 0.539929
vt 0.074665 0.370573
vt 0.446483 0.486449
vt 0.924410 0.371251
vt 0.556749 0.484275
vt 0.216601 0.860365
vt 0.464703 0.547623
vt 0.057472 0.455662
vt 0.443622 0.497867
vt 0.892440 0.292055
vt 0.552389 0.473629
vt 0.352009 0.020900
vt 0.448147 0.000910
vt 0.000000 0.000000
vt 0.000000 0.000000
vt 0.261561 0.059267
vt 0.000000 0.000000
vt 0.180571 0.114313
vt 0.015722 0.644428
vt 0.000100 0.548182
vt 0.000000 0.000000
vt 0.111923 0.183680
vt 0.042088 0.735908
vt 0.000000 0.000000
vt 0.057944 0.264749
vt 0.000000 0.000000
vt 0.000000 0.000000
vt 0.000000 0.000000
vt 0.020606 0.354673
vt 0.177970 0.900668
vt 0.111445 0.836904
vt 0.501633 0.482608
vt 0.497352 0.483372
vt 0.001214 0.450325
vt 0.000000 0.000000
vt 0.000000 0.000000
vt 0.000000 0.000000
vt 0.000000 0.000000
vt 0.372538 0.989070
vt 0.279068 0.966158
vt 0.000000 0.000000
vt 0.000000 0.000000
vt 0.000000 0.000000
vt 0.467123 0.999900
vt 0.490736 0.487102
vt 0.487540 0.490174
vt 0.000000 0.000000
vt 0.561066 0.995541
vt 0.000000 0.000000
vt 0.000000 0.000000
vt 0.000000 0.000000
vt 0.651386 0.976852
vt 0.484999 0.493856
vt 0.483243 0.498010
vt 0.485556 0.512848
vt 0.488486 0.516103
vt 0.737357 0.949034
vt 0.000000 0.000000
vt 0.000000 0.000000
vt 0.491957 0.518659
vt 0.000000 0.000000
vt 0.000000 0.000000
vt 0.495810 0.520448
vt 0.897070 0.806759
vt 0.839597 0.882129
vt 0.499888 0.521421
vt 0.944491 0.725165
vt 0.504028 0.521558
vt 0.977965 0.636891
vt 0.508066 0.520870
vt 0.995274 0.543879
vt 0.511844 0.519396
vt 0.995274 0.448918
vt 0.515215 0.517206
vt 0.977484 0.355066
vt 0.518049 0.514393
vt 0.941785 0.265591
vt 0.520234 0.511075
vt 0.888602 0.183810
vt 0.521681 0.507390
vt 0.819151 0.113138
vt 0.522331 0.503490
vt 0.735802 0.056975
vt 0.522153 0.499547
vt 0.643639 0.018907
vt 0.521161 0.495754
vt 0.546564 0.000100
vt 0.519472 0.492393
vt 0.000000 0.000000
vn 0.0000 1.0000 -0.0000
vn 0.0000 -1.0000 0.0000
vn -0.9952 0.0000 0.0980
vn 0.6344 0.0000 0.7730
vn -0.9569 0.0000 0.2903
vn 0.7730 0.0000 0.6344
vn -0.8819 0.0000 0.4714
vn 0.0980 0.0000 0.9952
vn 0.8819 0.0000 0.4714
vn -0.7730 0.0000 0.6344
vn 0.2903 0.0000 0.9569
vn 0.9569 0.0000 0.2903
vn -0.6344 0.0000 0.7730
vn 0.4714 0.0000 0.8819
vn 0.9952 0.0000 0.0980
vn -0.4714 0.0000 0.8819
vn 0.9952 0.0000 -0.0980
vn -0.2903 0.0000 0.9569
vn 0.9569 0.0000 -0.2903
vn -0.0980 0.0000 0.9952
vn 0.8819 0.0000 -0.4714
vn -0.0980 0.0000 -0.9952
vn 0.7730 0.0000 -0.6344
vn -0.2903 0.0000 -0.9569
vn 0.6344 0.0000 -0.7730
vn -0.4714 0.0000 -0.8819
vn 0.4714 0.0000 -0.8819
vn -0.6344 0.0000 -0.7730
vn 0.2903 0.0000 -0.9569
vn -0.7730 0.0000 -0.6344
vn 0.0980 0.0000 -0.9952
vn -0.8819 0.0000 -0.4714
vn -0.9569 0.0000 -0.2903
vn -0.9952 0.0000 -0.0980
usemtl None
s off
f 7/1/1 39/2/1 38/3/1 6/4/1
f 21/5/1 53/6/1 52/7/1 20/8/1
f 8/9/1 40/10/1 39/2/1 7/1/1
f 22/11/1 54/12/1 53/6/1 21/5/1
f 9/13/1 41/14/1 40/10/1 8/9/1
f 23/15/1 55/16/1 54/12/1 22/11/1
f 10/17/1 42/18/1 41/14/1 9/13/1
f 24/19/1 56/20/1 55/16/1 23/15/1
f 11/21/1 43/22/1 42/18/1 10/17/1
f 25/23/1 57/24/1 56/20/1 24/19/1
f 12/25/1 44/26/1 43/22/1 11/21/1
f 26/27/1 58/28/1 57/24/1 25/23/1
f 13/29/1 45/30/1 44/26/1 12/25/1
f 27/31/1 59/32/1 58/28/1 26/27/1
f 14/33/1 46/34/1 45/30/1 13/29/1
f 28/35/1 60/36/1 59/32/1 27/31/1
f 15/37/1 47/38/1 46/34/1 14/33/1
f 2/39/1 34/40/1 33/41/1 1/42/1
f 29/43/1 61/44/1 60/36/1 28/35/1
f 16/45/1 48/46/1 47/38/1 15/37/1
f 3/47/1 35/48/1 34/40/1 2/39/1
f 30/49/1 62/50/1 61/44/1 29/43/1
f 17/51/1 49/52/1 48/46/1 16/45/1
f 4/53/1 36/54/1 35/48/1 3/47/1
f 31/55/1 63/56/1 62/50/1 30/49/1
f 18/57/1 50/58/1 49/52/1 17/51/1
f 5/59/1 37/60/1 36/54/1 4/53/1
f 32/61/1 64/62/1 63/56/1 31/55/1
f 19/63/1 51/64/1 50/58/1 18/57/1
f 6/4/1 38/3/1 37/60/1 5/59/1
f 1/42/1 33/41/1 64/62/1 32/61/1
f 20/8/1 52/7/1 51/64/1 19/63/1
f 71/65/2 70/66/2 102/67/2 103/68/2
f 85/69/2 84/70/2 116/71/2 117/72/2
f 72/73/2 71/65/2 103/68/2 104/74/2
f 86/75/2 85/69/2 117/72/2 118/76/2
f 73/77/2 72/73/2 104/74/2 105/78/2
f 87/79/2 86/75/2 118/76/2 119/80/2
f 74/81/2 73/77/2 105/78/2 106/82/2
f 88/83/2 87/79/2 119/80/2 120/84/2
f 75/85/2 74/81/2 106/82/2 107/86/2
f 89/87/2 88/83/2 120/84/2 121/88/2
f 76/89/2 75/85/2 107/86/2 108/90/2
f 90/91/2 89/87/2 121/88/2 122/92/2
f 77/93/2 76/89/2 108/90/2 109/94/2
f 91/95/2 90/91/2 122/92/2 123/96/2
f 78/97/2 77/93/2 109/94/2 110/98/2
f 92/99/2 91/95/2 123/96/2 124/100/2
f 79/101/2 78/97/2 110/98/2 111/102/2
f 65/103/2 66/104/2 98/105/2 97/106/2
f 93/107/2 92/99/2 124/100/2 125/108/2
f 80/109/2 79/101/2 111/102/2 112/110/2
f 67/111/2 65/103/2 97/106/2 99/112/2
f 94/113/2 93/107/2 125/108/2 126/114/2
f 81/115/2 80/109/2 112/110/2 113/116/2
f 68/117/2 67/111/2 99/112/2 100/118/2
f 95/119/2 94/113/2 126/114/2 127/120/2
f 82/121/2 81/115/2 113/116/2 114/122/2
f 69/123/2 68/117/2 100/118/2 101/124/2
f 96/125/2 95/119/2 127/120/2 128/126/2
f 83/127/2 82/121/2 114/122/2 115/128/2
f 70/66/2 69/123/2 101/124/2 102/67/2
f 66/104/2 96/125/2 128/126/2 98/105/2
f 84/70/2 83/127/2 115/128/2 116/71/2
f 26/129/3 25/130/3 89/87/3 90/91/3
f 52/7/4 53/6/4 117/131/4 116/132/4
f 27/133/5 26/129/5 90/91/5 91/95/5
f 53/6/6 54/12/6 118/134/6 117/131/6
f 28/135/7 27/133/7 91/95/7 92/99/7
f 2/136/8 1/137/8 66/104/8 65/103/8
f 54/12/9 55/16/9 119/138/9 118/134/9
f 29/139/10 28/135/10 92/99/10 93/107/10
f 3/140/11 2/136/11 65/103/11 67/111/11
f 55/16/12 56/20/12 120/141/12 119/138/12
f 30/142/13 29/139/13 93/107/13 94/113/13
f 4/53/14 3/47/14 67/143/14 68/144/14
f 56/20/15 57/24/15 121/145/15 120/141/15
f 31/146/16 30/142/16 94/113/16 95/119/16
f 5/147/4 4/148/4 68/117/4 69/123/4
f 57/149/17 58/150/17 122/92/17 121/88/17
f 32/151/18 31/146/18 95/119/18 96/125/18
f 6/4/6 5/59/6 69/152/6 70/153/6
f 58/28/19 59/32/19 123/154/19 122/155/19
f 1/137/20 32/151/20 96/125/20 66/104/20
f 7/156/9 6/157/9 70/66/9 71/65/9
f 59/32/21 60/36/21 124/158/21 123/154/21
f 33/41/22 34/40/22 97/159/22 98/160/22
f 8/161/12 7/156/12 71/65/12 72/73/12
f 60/162/23 61/163/23 125/108/23 124/100/23
f 34/40/24 35/48/24 99/164/24 97/159/24
f 9/165/15 8/161/15 72/73/15 73/77/15
f 61/44/25 62/50/25 126/166/25 125/167/25
f 35/48/26 36/54/26 100/168/26 99/164/26
f 10/169/17 9/165/17 73/77/17 74/81/17
f 62/170/27 63/171/27 127/120/27 126/114/27
f 36/172/28 37/173/28 101/124/28 100/118/28
f 11/174/19 10/169/19 74/81/19 75/85/19
f 63/56/29 64/62/29 128/175/29 127/176/29
f 37/173/30 38/177/30 102/67/30 101/124/30
f 12/25/21 11/21/21 75/178/21 76/179/21
f 64/62/31 33/41/31 98/160/31 128/175/31
f 38/177/32 39/180/32 103/68/32 102/67/32
f 13/181/23 12/182/23 76/89/23 77/93/23
f 39/180/33 40/183/33 104/74/33 103/68/33
f 14/184/25 13/181/25 77/93/25 78/97/25
f 40/183/34 41/185/34 105/78/34 104/74/34
f 15/186/27 14/184/27 78/97/27 79/101/27
f 41/185/3 42/187/3 106/82/3 105/78/3
f 16/188/29 15/186/29 79/101/29 80/109/29
f 42/187/5 43/189/5 107/86/5 106/82/5
f 17/190/31 16/188/31 80/109/31 81/115/31
f 43/189/7 44/191/7 108/90/7 107/86/7
f 18/192/22 17/190/22 81/115/22 82/121/22
f 44/191/10 45/193/10 109/94/10 108/90/10
f 19/194/24 18/192/24 82/121/24 83/127/24
f 45/193/13 46/195/13 110/98/13 109/94/13
f 20/196/26 19/194/26 83/127/26 84/70/26
f 46/195/16 47/197/16 111/102/16 110/98/16
f 21/198/28 20/196/28 84/70/28 85/69/28
f 47/197/18 48/199/18 112/110/18 111/102/18
f 22/200/30 21/198/30 85/69/30 86/75/30
f 48/199/20 49/201/20 113/116/20 112/110/20
f 23/202/32 22/200/32 86/75/32 87/79/32
f 49/201/8 50/203/8 114/122/8 113/116/8
f 24/204/33 23/202/33 87/79/33 88/83/33
f 50/203/11 51/205/11 115/128/11 114/122/11
f 25/130/34 24/204/34 88/83/34 89/87/34
f 51/64/14 52/7/14 116/132/14 115/206/14
