# Blender v3.1.2 OBJ File: ''
# www.blender.org
mtllib Please.mtl
o Circle
v 0.000000 0.000000 -40.000000
v -7.803613 0.000000 -39.231411
v -15.307339 0.000000 -36.955181
v -22.222809 0.000000 -33.258785
v -28.284271 0.000000 -28.284271
v -33.258785 0.000000 -22.222809
v -36.955181 0.000000 -15.307337
v -39.231411 0.000000 -7.803614
v -40.000000 0.000000 0.000002
v -39.231411 0.000000 7.803613
v -36.955181 0.000000 15.307336
v -33.258785 0.000000 22.222807
v -28.284271 0.000000 28.284271
v -22.222807 0.000000 33.258785
v -15.307340 0.000000 36.955181
v -7.803612 0.000000 39.231411
v 0.000003 0.000000 40.000000
v 7.803610 0.000000 39.231411
v 15.307337 0.000000 36.955181
v 22.222813 0.000000 33.258781
v 28.284267 0.000000 28.284273
v 33.258778 0.000000 22.222816
v 36.955181 0.000000 15.307343
v 39.231411 0.000000 7.803616
v 40.000000 0.000000 -0.000000
v 39.231411 0.000000 -7.803617
v 36.955177 0.000000 -15.307344
v 33.258789 0.000000 -22.222803
v 28.284275 0.000000 -28.284267
v 22.222813 0.000000 -33.258785
v 15.307337 0.000000 -36.955181
v 7.803609 0.000000 -39.231411
v -0.000000 0.000000 -4.470741
v -0.872198 0.000000 -4.384834
v -1.710877 0.000000 -4.130424
v -2.483809 0.000000 -3.717283
v -3.161289 0.000000 -3.161289
v -3.717283 0.000000 -2.483810
v -4.130424 0.000000 -1.710878
v -4.384834 0.000000 -0.872198
v -4.470737 0.000000 -0.000000
v -4.384834 0.000000 0.872198
v -4.130424 0.000000 1.710877
v -3.717283 0.000000 2.483809
v -3.161289 0.000000 3.161289
v -2.483809 0.000000 3.717283
v -1.710877 0.000000 4.130424
v -0.872198 0.000000 4.384834
v 0.000000 0.000000 4.470737
v 0.872198 0.000000 4.384834
v 1.710877 0.000000 4.130424
v 2.483810 0.000000 3.717283
v 3.161289 0.000000 3.161289
v 3.717283 0.000000 2.483810
v 4.130424 0.000000 1.710878
v 4.384834 0.000000 0.872198
v 4.470737 0.000000 -0.000000
v 4.384834 0.000000 -0.872199
v 4.130424 0.000000 -1.710878
v 3.717283 0.000000 -2.483809
v 3.161289 0.000000 -3.161289
v 2.483810 0.000000 -3.717283
v 1.710877 0.000000 -4.130424
v 0.872198 0.000000 -4.384834
v 0.000000 1.337254 -40.000000
v -7.803613 1.337254 -39.231411
v -15.307339 1.337254 -36.955181
v -22.222809 1.337254 -33.258785
v -28.284271 1.337254 -28.284271
v -33.258785 1.337254 -22.222809
v -36.955181 1.337254 -15.307337
v -39.231411 1.337254 -7.803614
v -40.000000 1.337254 0.000002
v -39.231411 1.337254 7.803613
v -36.955181 1.337254 15.307336
v -33.258785 1.337254 22.222807
v -28.284271 1.337254 28.284271
v -22.222807 1.337254 33.258785
v -15.307340 1.337254 36.955181
v -7.803612 1.337254 39.231411
v 0.000003 1.337254 40.000000
v 7.803610 1.337254 39.231411
v 15.307337 1.337254 36.955181
v 22.222813 1.337254 33.258781
v 28.284267 1.337254 28.284273
v 33.258778 1.337254 22.222816
v 36.955181 1.337254 15.307343
v 39.231411 1.337254 7.803616
v 40.000000 1.337254 -0.000000
v 39.231411 1.337254 -7.803617
v 36.955177 1.337254 -15.307344
v 33.258789 1.337254 -22.222803
v 28.284275 1.337254 -28.284267
v 22.222813 1.337254 -33.258785
v 15.307337 1.337254 -36.955181
v 7.803609 1.337254 -39.231411
v -0.000000 1.337254 -4.470741
v -0.872198 1.337254 -4.384834
v -1.710877 1.337254 -4.130424
v -2.483809 1.337254 -3.717283
v -3.161289 1.337254 -3.161289
v -3.717283 1.337254 -2.483810
v -4.130424 1.337254 -1.710878
v -4.384834 1.337254 -0.872198
v -4.470737 1.337254 -0.000000
v -4.384834 1.337254 0.872198
v -4.130424 1.337254 1.710877
v -3.717283 1.337254 2.483809
v -3.161289 1.337254 3.161289
v -2.483809 1.337254 3.717283
v -1.710877 1.337254 4.130424
v -0.872198 1.337254 4.384834
v 0.000000 1.337254 4.470737
v 0.872198 1.337254 4.384834
v 1.710877 1.337254 4.130424
v 2.483810 1.337254 3.717283
v 3.161289 1.337254 3.161289
v 3.717283 1.337254 2.483810
v 4.130424 1.337254 1.710878
v 4.384834 1.337254 0.872198
v 4.470737 1.337254 -0.000000
v 4.384834 1.337254 -0.872199
v 4.130424 1.337254 -1.710878
v 3.717283 1.337254 -2.483809
v 3.161289 1.337254 -3.161289
v 2.483810 1.337254 -3.717283
v 1.710877 1.337254 -4.130424
v 0.872198 1.337254 -4.384834
vt 0.525914 0.987912
vt 0.428562 0.986296
vt 0.479085 0.548107
vt 0.489963 0.548216
vt 0.106697 0.799636
vt 0.055361 0.722148
vt 0.436035 0.519151
vt 0.441964 0.528003
vt 0.633558 0.025588
vt 0.722057 0.063506
vt 0.511809 0.445634
vt 0.501882 0.441487
vt 0.624000 0.969189
vt 0.528429 0.987133
vt 0.500644 0.546211
vt 0.537075 0.006294
vt 0.631195 0.025702
vt 0.491362 0.439317
vt 0.712609 0.930964
vt 0.625041 0.966380
vt 0.510723 0.542225
vt 0.445575 0.005252
vt 0.541629 0.006940
vt 0.480624 0.439129
vt 0.791943 0.879455
vt 0.519809 0.536365
vt 0.360081 0.015007
vt 0.453568 0.000187
vt 0.469922 0.440848
vt 0.860060 0.813765
vt 0.527570 0.528864
vt 0.268916 0.048345
vt 0.459733 0.444618
vt 0.914429 0.736345
vt 0.533720 0.520002
vt 0.187382 0.088787
vt 0.272448 0.038875
vt 0.450224 0.450197
vt 0.953042 0.650086
vt 0.538026 0.510105
vt 0.040119 0.105885
vt 0.126277 0.025394
vt 0.441331 0.458636
vt 0.974814 0.555861
vt 0.540267 0.499536
vt 0.031775 0.269729
vt 0.084071 0.185349
vt 0.435485 0.468067
vt 0.974814 0.447328
vt 0.974516 0.543660
vt 0.540300 0.488770
vt 0.009117 0.361253
vt 0.043933 0.270990
vt 0.431594 0.478157
vt 0.956063 0.355083
vt 0.973887 0.447173
vt 0.538288 0.478211
vt 0.173622 0.867417
vt 0.449535 0.535540
vt 0.000187 0.453672
vt 0.017154 0.360091
vt 0.429697 0.488616
vt 0.921062 0.268016
vt 0.534243 0.468256
vt 0.247233 0.925713
vt 0.169244 0.872580
vt 0.458467 0.541631
vt 0.006634 0.546329
vt 0.005419 0.452356
vt 0.429833 0.499118
vt 0.868697 0.187367
vt 0.528295 0.459309
vt 0.336176 0.963805
vt 0.468440 0.545829
vt 0.027303 0.636379
vt 0.008158 0.544750
vt 0.431973 0.509359
vt 0.799661 0.116429
vt 0.865778 0.183094
vt 0.520727 0.451662
vt 0.335680 0.966506
vt 0.019692 0.636365
vt 0.423273 0.286594
vt 0.488666 0.533667
vt 0.480595 0.533553
vt 0.464846 0.277920
vt 0.621648 0.327025
vt 0.452985 0.518712
vt 0.448536 0.512219
vt 0.650280 0.357889
vt 0.470220 0.713301
vt 0.497636 0.455347
vt 0.505009 0.458440
vt 0.428460 0.705113
vt 0.384183 0.303408
vt 0.496581 0.532230
vt 0.512671 0.713149
vt 0.489792 0.453724
vt 0.349116 0.327639
vt 0.504011 0.529324
vt 0.554238 0.704654
vt 0.481755 0.453627
vt 0.319457 0.358294
vt 0.510725 0.525040
vt 0.593234 0.688123
vt 0.473839 0.455051
vt 0.296347 0.394110
vt 0.516465 0.519542
vt 0.628047 0.664174
vt 0.466254 0.458012
vt 0.280623 0.433765
vt 0.521011 0.513043
vt 0.657247 0.633741
vt 0.459330 0.462419
vt 0.272868 0.475816
vt 0.524186 0.505790
vt 0.679611 0.597998
vt 0.453281 0.468140
vt 0.273421 0.518587
vt 0.525859 0.498032
vt 0.694167 0.558363
vt 0.448626 0.474835
vt 0.282240 0.560418
vt 0.525952 0.490123
vt 0.700283 0.516248
vt 0.445458 0.482180
vt 0.298955 0.599768
vt 0.524490 0.482396
vt 0.587266 0.302825
vt 0.458665 0.524321
vt 0.697329 0.474683
vt 0.443832 0.489868
vt 0.322956 0.635170
vt 0.521526 0.475095
vt 0.548584 0.286181
vt 0.465304 0.528769
vt 0.685667 0.434222
vt 0.443823 0.497604
vt 0.353363 0.665252
vt 0.517150 0.468482
vt 0.507217 0.277775
vt 0.472736 0.531896
vt 0.671887 0.393957
vt 0.445453 0.505095
vt 0.388986 0.688874
vt 0.511586 0.462873
vt 0.951263 0.988286
vt 0.951263 0.999813
vt 0.883677 0.999813
vt 0.883677 0.988286
vt 0.747381 0.988286
vt 0.747381 0.999813
vt 0.679795 0.999812
vt 0.679795 0.988286
vt 0.975189 0.611834
vt 0.986715 0.611834
vt 0.986715 0.679420
vt 0.975188 0.679420
vt 0.975189 0.475913
vt 0.986715 0.475913
vt 0.986715 0.543499
vt 0.975188 0.543499
vt 0.987089 0.204070
vt 0.998615 0.204070
vt 0.998615 0.271655
vt 0.987089 0.271655
vt 0.986715 0.951263
vt 0.975188 0.951263
vt 0.975188 0.883677
vt 0.986715 0.883677
vt 0.272031 0.999813
vt 0.272031 0.988287
vt 0.339616 0.988286
vt 0.339616 0.999813
vt 0.986715 0.271655
vt 0.975189 0.271655
vt 0.975188 0.204070
vt 0.986715 0.204070
vt 0.986715 0.747381
vt 0.975188 0.747381
vt 0.975188 0.679795
vt 0.986715 0.679795
vt 0.986715 0.815341
vt 0.975188 0.815341
vt 0.975188 0.747756
vt 0.986715 0.747756
vt 0.611834 0.999813
vt 0.611834 0.988286
vt 0.679420 0.988286
vt 0.679420 0.999813
vt 0.986715 0.407577
vt 0.975189 0.407577
vt 0.975188 0.339991
vt 0.986715 0.339991
vt 0.986715 0.135734
vt 0.975189 0.135734
vt 0.975188 0.068148
vt 0.986715 0.068148
vt 0.998615 0.203695
vt 0.987089 0.203695
vt 0.987089 0.136109
vt 0.998615 0.136109
vt 0.986715 0.883302
vt 0.975188 0.883302
vt 0.975189 0.815716
vt 0.986715 0.815716
vt 0.986715 0.611459
vt 0.975188 0.611459
vt 0.975188 0.543873
vt 0.986715 0.543873
vt 0.203695 0.988286
vt 0.203695 0.999813
vt 0.136109 0.999812
vt 0.136109 0.988286
vt 0.611459 0.988286
vt 0.611459 0.999813
vt 0.543873 0.999812
vt 0.543873 0.988287
vt 0.986715 0.475538
vt 0.975188 0.475538
vt 0.975189 0.407952
vt 0.986715 0.407952
vt 0.986715 0.203695
vt 0.975188 0.203695
vt 0.975189 0.136109
vt 0.986715 0.136109
vt 0.815342 0.988286
vt 0.815342 0.999813
vt 0.747756 0.999813
vt 0.747756 0.988287
vt 0.987089 0.068148
vt 0.998615 0.068148
vt 0.998615 0.135734
vt 0.987089 0.135734
vt 0.986715 0.339616
vt 0.975188 0.339616
vt 0.975189 0.272030
vt 0.986715 0.272030
vt 0.135734 0.988286
vt 0.135734 0.999813
vt 0.068148 0.999812
vt 0.068148 0.988287
vt 0.998615 0.067773
vt 0.987089 0.067773
vt 0.987089 0.000187
vt 0.998615 0.000187
vt 0.883302 0.988286
vt 0.883302 0.999813
vt 0.815717 0.999812
vt 0.815717 0.988286
vt 0.986715 0.067773
vt 0.975189 0.067773
vt 0.975188 0.000187
vt 0.986715 0.000187
vt 0.339991 0.999813
vt 0.339991 0.988286
vt 0.407577 0.988286
vt 0.407577 0.999813
vt 0.000187 0.999813
vt 0.000187 0.988287
vt 0.067773 0.988286
vt 0.067773 0.999813
vt 0.271656 0.988286
vt 0.271656 0.999813
vt 0.204070 0.999813
vt 0.204070 0.988286
vt 0.475913 0.999813
vt 0.475913 0.988286
vt 0.543499 0.988286
vt 0.543499 0.999813
vt 0.475538 0.988286
vt 0.475538 0.999813
vt 0.407952 0.999813
vt 0.407952 0.988286
vn 0.0000 -1.0000 0.0000
vn 0.0000 1.0000 0.0000
vn -0.8819 0.0000 0.4714
vn 0.0980 0.0000 0.9952
vn -0.9569 0.0000 -0.2903
vn -0.7730 0.0000 0.6344
vn 0.2903 0.0000 0.9569
vn -0.9952 0.0000 -0.0980
vn -0.6344 0.0000 0.7730
vn 0.4714 0.0000 0.8819
vn -0.9952 0.0000 0.0980
vn -0.4714 0.0000 0.8819
vn 0.6344 0.0000 0.7730
vn -0.9569 0.0000 0.2903
vn -0.2903 0.0000 0.9569
vn 0.7730 0.0000 0.6344
vn -0.0980 0.0000 0.9952
vn 0.8819 0.0000 0.4714
vn 0.9569 0.0000 0.2903
vn 0.9952 0.0000 0.0980
vn 0.9952 0.0000 -0.0980
vn 0.9569 0.0000 -0.2903
vn 0.8819 0.0000 -0.4714
vn 0.7730 0.0000 -0.6344
vn 0.6344 0.0000 -0.7730
vn 0.4714 0.0000 -0.8819
vn 0.2903 0.0000 -0.9569
vn 0.0980 0.0000 -0.9952
vn -0.0980 0.0000 -0.9952
vn -0.2903 0.0000 -0.9569
vn -0.4714 0.0000 -0.8819
vn -0.6344 0.0000 -0.7730
vn -0.7730 0.0000 -0.6344
vn -0.8819 0.0000 -0.4714
usemtl Material.001
s off
f 6/1/1 5/2/1 37/3/1 38/4/1
f 1/5/1 32/6/1 64/7/1 33/8/1
f 20/9/1 19/10/1 51/11/1 52/12/1
f 7/13/1 6/14/1 38/4/1 39/15/1
f 21/16/1 20/17/1 52/12/1 53/18/1
f 8/19/1 7/20/1 39/15/1 40/21/1
f 22/22/1 21/23/1 53/18/1 54/24/1
f 9/25/1 8/19/1 40/21/1 41/26/1
f 23/27/1 22/28/1 54/24/1 55/29/1
f 10/30/1 9/25/1 41/26/1 42/31/1
f 24/32/1 23/27/1 55/29/1 56/33/1
f 11/34/1 10/30/1 42/31/1 43/35/1
f 25/36/1 24/37/1 56/33/1 57/38/1
f 12/39/1 11/34/1 43/35/1 44/40/1
f 26/41/1 25/42/1 57/38/1 58/43/1
f 13/44/1 12/39/1 44/40/1 45/45/1
f 27/46/1 26/47/1 58/43/1 59/48/1
f 14/49/1 13/50/1 45/45/1 46/51/1
f 28/52/1 27/53/1 59/48/1 60/54/1
f 15/55/1 14/56/1 46/51/1 47/57/1
f 2/58/1 1/5/1 33/8/1 34/59/1
f 29/60/1 28/61/1 60/54/1 61/62/1
f 16/63/1 15/55/1 47/57/1 48/64/1
f 3/65/1 2/66/1 34/59/1 35/67/1
f 30/68/1 29/69/1 61/62/1 62/70/1
f 17/71/1 16/63/1 48/64/1 49/72/1
f 4/73/1 3/65/1 35/67/1 36/74/1
f 31/75/1 30/76/1 62/70/1 63/77/1
f 18/78/1 17/79/1 49/72/1 50/80/1
f 5/2/1 4/81/1 36/74/1 37/3/1
f 32/6/1 31/82/1 63/77/1 64/7/1
f 19/10/1 18/78/1 50/80/1 51/11/1
f 70/83/2 102/84/2 101/85/2 69/86/2
f 65/87/2 97/88/2 128/89/2 96/90/2
f 84/91/2 116/92/2 115/93/2 83/94/2
f 71/95/2 103/96/2 102/84/2 70/83/2
f 85/97/2 117/98/2 116/92/2 84/91/2
f 72/99/2 104/100/2 103/96/2 71/95/2
f 86/101/2 118/102/2 117/98/2 85/97/2
f 73/103/2 105/104/2 104/100/2 72/99/2
f 87/105/2 119/106/2 118/102/2 86/101/2
f 74/107/2 106/108/2 105/104/2 73/103/2
f 88/109/2 120/110/2 119/106/2 87/105/2
f 75/111/2 107/112/2 106/108/2 74/107/2
f 89/113/2 121/114/2 120/110/2 88/109/2
f 76/115/2 108/116/2 107/112/2 75/111/2
f 90/117/2 122/118/2 121/114/2 89/113/2
f 77/119/2 109/120/2 108/116/2 76/115/2
f 91/121/2 123/122/2 122/118/2 90/117/2
f 78/123/2 110/124/2 109/120/2 77/119/2
f 92/125/2 124/126/2 123/122/2 91/121/2
f 79/127/2 111/128/2 110/124/2 78/123/2
f 66/129/2 98/130/2 97/88/2 65/87/2
f 93/131/2 125/132/2 124/126/2 92/125/2
f 80/133/2 112/134/2 111/128/2 79/127/2
f 67/135/2 99/136/2 98/130/2 66/129/2
f 94/137/2 126/138/2 125/132/2 93/131/2
f 81/139/2 113/140/2 112/134/2 80/133/2
f 68/141/2 100/142/2 99/136/2 67/135/2
f 95/143/2 127/144/2 126/138/2 94/137/2
f 82/145/2 114/146/2 113/140/2 81/139/2
f 69/86/2 101/85/2 100/142/2 68/141/2
f 96/90/2 128/89/2 127/144/2 95/143/2
f 83/94/2 115/93/2 114/146/2 82/145/2
f 59/48/3 123/122/3 124/126/3 60/54/3
f 33/8/4 97/88/4 98/130/4 34/59/4
f 8/147/5 72/148/5 71/149/5 7/150/5
f 60/54/6 124/126/6 125/132/6 61/62/6
f 34/59/7 98/130/7 99/136/7 35/67/7
f 9/151/8 73/152/8 72/153/8 8/154/8
f 61/62/9 125/132/9 126/138/9 62/70/9
f 35/67/10 99/136/10 100/142/10 36/74/10
f 10/155/11 74/156/11 73/157/11 9/158/11
f 62/70/12 126/138/12 127/144/12 63/77/12
f 36/74/13 100/142/13 101/85/13 37/3/13
f 11/159/14 75/160/14 74/161/14 10/162/14
f 63/77/15 127/144/15 128/89/15 64/7/15
f 37/3/16 101/85/16 102/84/16 38/4/16
f 12/163/3 76/164/3 75/165/3 11/166/3
f 64/7/17 128/89/17 97/88/17 33/8/17
f 38/4/18 102/84/18 103/96/18 39/15/18
f 13/167/6 77/168/6 76/169/6 12/170/6
f 39/15/19 103/96/19 104/100/19 40/21/19
f 14/171/9 78/172/9 77/173/9 13/174/9
f 40/21/20 104/100/20 105/104/20 41/26/20
f 15/175/12 79/176/12 78/177/12 14/178/12
f 41/26/21 105/104/21 106/108/21 42/31/21
f 16/179/15 80/180/15 79/181/15 15/182/15
f 42/31/22 106/108/22 107/112/22 43/35/22
f 17/183/17 81/184/17 80/185/17 16/186/17
f 43/35/23 107/112/23 108/116/23 44/40/23
f 18/187/4 82/188/4 81/189/4 17/190/4
f 44/40/24 108/116/24 109/120/24 45/45/24
f 19/191/7 83/192/7 82/193/7 18/194/7
f 45/45/25 109/120/25 110/124/25 46/51/25
f 20/195/10 84/196/10 83/197/10 19/198/10
f 46/51/26 110/124/26 111/128/26 47/57/26
f 21/199/13 85/200/13 84/201/13 20/202/13
f 47/57/27 111/128/27 112/134/27 48/64/27
f 22/203/16 86/204/16 85/205/16 21/206/16
f 48/64/28 112/134/28 113/140/28 49/72/28
f 23/207/18 87/208/18 86/209/18 22/210/18
f 49/72/29 113/140/29 114/146/29 50/80/29
f 24/211/19 88/212/19 87/213/19 23/214/19
f 50/80/30 114/146/30 115/93/30 51/11/30
f 25/215/20 89/216/20 88/217/20 24/218/20
f 51/11/31 115/93/31 116/92/31 52/12/31
f 26/219/21 90/220/21 89/221/21 25/222/21
f 52/12/32 116/92/32 117/98/32 53/18/32
f 27/223/22 91/224/22 90/225/22 26/226/22
f 53/18/33 117/98/33 118/102/33 54/24/33
f 28/227/23 92/228/23 91/229/23 27/230/23
f 2/231/29 66/232/29 65/233/29 1/234/29
f 54/24/34 118/102/34 119/106/34 55/29/34
f 29/235/24 93/236/24 92/237/24 28/238/24
f 3/239/30 67/240/30 66/241/30 2/242/30
f 55/29/5 119/106/5 120/110/5 56/33/5
f 30/243/25 94/244/25 93/245/25 29/246/25
f 4/247/31 68/248/31 67/249/31 3/250/31
f 56/33/8 120/110/8 121/114/8 57/38/8
f 31/251/26 95/252/26 94/253/26 30/254/26
f 5/255/32 69/256/32 68/257/32 4/258/32
f 57/38/11 121/114/11 122/118/11 58/43/11
f 32/259/27 96/260/27 95/261/27 31/262/27
f 6/263/33 70/264/33 69/265/33 5/266/33
f 58/43/14 122/118/14 123/122/14 59/48/14
f 1/267/28 65/268/28 96/269/28 32/270/28
f 7/271/34 71/272/34 70/273/34 6/274/34
